<?xml version="1.0" encoding="UTF-8"?>
<svg xmlns="http://www.w3.org/2000/svg" xmlns:xlink="http://www.w3.org/1999/xlink" width="75pt" height="74.999997pt" viewBox="0 0 75 74.999997" version="1.2">
<defs>
<clipPath id="clip1">
  <path d="M 0 3 L 75 3 L 75 71.859375 L 0 71.859375 Z M 0 3 "/>
</clipPath>
</defs>
<g id="surface1">
<g clip-path="url(#clip1)" clip-rule="nonzero">
<path style=" stroke:none;fill-rule:nonzero;fill:rgb(0%,0%,0%);fill-opacity:1;" d="M 73.417969 21.527344 L 68.265625 21.527344 L 68.265625 20.863281 C 68.265625 20.449219 68.097656 20.035156 67.765625 19.785156 C 66.433594 18.625 64.605469 17.796875 62.359375 17.214844 L 65.269531 9.753906 C 65.769531 8.507812 65.6875 7.183594 65.1875 6.019531 C 64.6875 4.859375 63.691406 3.949219 62.445312 3.449219 C 61.195312 2.953125 59.867188 3.035156 58.703125 3.535156 C 57.453125 4.03125 56.539062 5.027344 56.125 6.269531 L 51.96875 16.882812 C 46.644531 17.382812 40.660156 19.121094 37.5 21.941406 C 34.175781 19.039062 27.855469 17.382812 23.03125 16.882812 C 19.707031 16.550781 11.558594 16.054688 7.316406 19.867188 C 6.984375 20.035156 6.734375 20.449219 6.734375 20.863281 L 6.734375 21.445312 L 1.582031 21.445312 C 0.75 21.445312 0.0859375 22.109375 0.0859375 22.9375 L 0.0859375 67.796875 C 0.0859375 68.292969 0.335938 68.707031 0.75 69.039062 C 1.164062 69.289062 1.664062 69.371094 2.082031 69.207031 C 7.566406 66.96875 17.296875 65.226562 23.78125 65.390625 C 27.105469 65.476562 30.015625 66.882812 33.011719 69.953125 C 34.257812 71.195312 35.753906 71.859375 37.5 71.859375 C 39.246094 71.859375 40.742188 71.195312 41.988281 69.953125 C 44.984375 66.96875 47.894531 65.476562 51.21875 65.390625 C 57.703125 65.226562 67.433594 66.96875 72.917969 69.207031 C 73.335938 69.371094 73.917969 69.371094 74.25 69.039062 C 74.664062 68.792969 74.914062 68.292969 74.914062 67.796875 L 74.914062 22.9375 C 74.914062 22.109375 74.25 21.527344 73.417969 21.527344 Z M 49.140625 31.976562 L 52.882812 33.382812 L 52.464844 34.546875 L 48.972656 38.027344 L 48.726562 33.136719 Z M 53.960938 30.730469 L 50.222656 29.320312 L 56.457031 13.402344 L 60.199219 14.8125 Z M 58.785156 7.265625 C 58.953125 6.765625 59.367188 6.351562 59.867188 6.1875 C 60.363281 5.9375 60.863281 5.9375 61.363281 6.1875 C 61.863281 6.351562 62.277344 6.765625 62.445312 7.265625 C 62.691406 7.761719 62.691406 8.261719 62.445312 8.757812 L 61.113281 12.074219 L 57.371094 10.664062 Z M 50.71875 19.953125 L 46.980469 29.570312 L 45.898438 32.308594 C 45.816406 32.472656 45.816406 32.722656 45.816406 32.886719 L 46.230469 41.429688 C 46.230469 42.007812 46.644531 42.507812 47.144531 42.753906 C 47.3125 42.835938 47.476562 42.835938 47.644531 42.835938 C 48.058594 42.835938 48.390625 42.671875 48.640625 42.421875 L 54.710938 36.453125 C 54.878906 36.285156 54.960938 36.121094 55.042969 35.957031 L 56.125 33.21875 L 61.28125 20.117188 C 62.941406 20.449219 64.355469 21.03125 65.355469 21.691406 L 65.355469 57.347656 C 60.863281 55.277344 54.792969 55.605469 52.050781 55.9375 C 47.808594 56.351562 42.488281 57.597656 38.996094 59.835938 L 38.996094 24.59375 C 40.742188 22.523438 45.480469 20.699219 50.71875 19.953125 Z M 9.644531 21.609375 C 12.222656 19.867188 17.046875 19.121094 22.617188 19.703125 C 28.519531 20.367188 33.925781 22.355469 35.921875 24.511719 L 35.921875 59.835938 C 32.429688 57.597656 27.105469 56.269531 22.867188 55.855469 C 20.121094 55.523438 13.96875 55.191406 9.5625 57.265625 L 9.5625 21.609375 Z M 72.003906 65.722656 C 66.019531 63.652344 57.371094 62.242188 51.136719 62.40625 C 47.144531 62.488281 43.402344 64.230469 39.910156 67.796875 C 39.246094 68.460938 38.414062 68.792969 37.5 68.792969 C 36.585938 68.792969 35.753906 68.460938 35.089844 67.796875 C 31.597656 64.3125 27.9375 62.488281 23.863281 62.40625 C 17.628906 62.242188 8.980469 63.652344 2.996094 65.722656 L 2.996094 24.429688 L 6.734375 24.429688 L 6.734375 59.917969 C 6.734375 60.5 7.070312 60.996094 7.566406 61.246094 C 8.066406 61.496094 8.730469 61.410156 9.148438 60.996094 C 11.558594 58.925781 16.546875 58.09375 22.617188 58.757812 C 28.769531 59.421875 34.507812 61.578125 36.253906 63.898438 C 36.253906 63.898438 36.335938 63.980469 36.335938 63.980469 C 36.335938 63.980469 36.417969 64.066406 36.417969 64.066406 C 36.417969 64.066406 36.503906 64.148438 36.585938 64.148438 C 36.585938 64.148438 36.667969 64.230469 36.667969 64.230469 C 36.667969 64.230469 36.75 64.230469 36.75 64.3125 C 36.75 64.3125 36.75 64.3125 36.835938 64.3125 C 36.835938 64.3125 36.917969 64.3125 36.917969 64.3125 C 36.917969 64.3125 36.917969 64.3125 37 64.3125 C 37 64.3125 37.085938 64.3125 37.085938 64.3125 C 37.085938 64.3125 37.085938 64.3125 37.167969 64.3125 C 37.25 64.3125 37.25 64.3125 37.332031 64.3125 C 37.417969 64.3125 37.417969 64.3125 37.5 64.3125 C 37.5 64.3125 37.5 64.3125 37.582031 64.3125 C 37.582031 64.3125 37.667969 64.3125 37.667969 64.3125 C 37.667969 64.3125 37.667969 64.3125 37.75 64.3125 C 37.75 64.3125 37.832031 64.3125 37.832031 64.3125 C 37.832031 64.3125 37.832031 64.3125 37.914062 64.3125 C 37.914062 64.3125 38 64.3125 38 64.230469 C 38 64.230469 38.082031 64.148438 38.082031 64.148438 C 38.164062 64.148438 38.164062 64.066406 38.25 64.066406 C 38.25 64.066406 38.332031 63.980469 38.332031 63.980469 C 38.332031 63.980469 38.414062 63.898438 38.414062 63.898438 C 40.160156 61.578125 45.898438 59.421875 52.050781 58.757812 C 58.035156 58.09375 63.191406 59.007812 65.519531 60.996094 C 65.9375 61.410156 66.601562 61.496094 67.101562 61.246094 C 67.597656 60.996094 67.929688 60.5 67.929688 59.917969 L 67.929688 24.429688 L 71.671875 24.429688 L 71.671875 65.722656 Z M 72.003906 65.722656 "/>
</g>
<path style=" stroke:none;fill-rule:nonzero;fill:rgb(0%,0%,0%);fill-opacity:1;" d="M 24.195312 26.917969 C 26.855469 27.332031 29.101562 27.996094 30.433594 28.824219 C 30.683594 28.988281 30.929688 29.074219 31.179688 29.074219 C 31.679688 29.074219 32.179688 28.824219 32.429688 28.410156 C 32.84375 27.746094 32.59375 26.835938 31.929688 26.417969 C 30.183594 25.339844 27.605469 24.59375 24.53125 24.097656 C 23.699219 24.015625 22.949219 24.511719 22.867188 25.339844 C 22.867188 26.085938 23.367188 26.835938 24.195312 26.917969 Z M 24.195312 26.917969 "/>
<path style=" stroke:none;fill-rule:nonzero;fill:rgb(0%,0%,0%);fill-opacity:1;" d="M 14.386719 27.164062 C 14.46875 27.164062 14.636719 27.164062 14.71875 27.082031 C 15.882812 26.835938 17.210938 26.585938 18.625 26.585938 C 19.457031 26.585938 20.039062 25.839844 20.039062 25.09375 C 20.039062 24.347656 19.292969 23.683594 18.542969 23.683594 C 16.878906 23.765625 15.382812 23.933594 14.054688 24.261719 C 13.304688 24.429688 12.804688 25.257812 12.972656 26.003906 C 13.136719 26.75 13.71875 27.164062 14.386719 27.164062 Z M 14.386719 27.164062 "/>
<path style=" stroke:none;fill-rule:nonzero;fill:rgb(0%,0%,0%);fill-opacity:1;" d="M 14.054688 30.566406 C 13.304688 30.730469 12.804688 31.558594 12.972656 32.308594 C 13.136719 32.96875 13.71875 33.382812 14.386719 33.382812 C 14.46875 33.382812 14.636719 33.382812 14.71875 33.300781 C 16.796875 32.804688 19.539062 32.636719 22.367188 32.886719 C 23.199219 32.96875 23.863281 32.390625 23.949219 31.558594 C 24.03125 30.730469 23.449219 30.066406 22.617188 29.984375 C 19.457031 29.820312 16.464844 29.984375 14.054688 30.566406 Z M 14.054688 30.566406 "/>
<path style=" stroke:none;fill-rule:nonzero;fill:rgb(0%,0%,0%);fill-opacity:1;" d="M 30.433594 35.125 C 30.683594 35.292969 30.929688 35.375 31.179688 35.375 C 31.679688 35.375 32.179688 35.125 32.429688 34.710938 C 32.84375 34.046875 32.59375 33.136719 31.929688 32.722656 C 31.015625 32.222656 29.933594 31.726562 28.601562 31.3125 C 27.855469 31.0625 27.023438 31.476562 26.773438 32.308594 C 26.523438 33.054688 26.941406 33.882812 27.773438 34.132812 C 28.9375 34.296875 29.765625 34.710938 30.433594 35.125 Z M 30.433594 35.125 "/>
<path style=" stroke:none;fill-rule:nonzero;fill:rgb(0%,0%,0%);fill-opacity:1;" d="M 32.011719 38.855469 C 27.9375 36.371094 19.539062 35.457031 14.054688 36.867188 C 13.304688 37.03125 12.804688 37.863281 12.972656 38.609375 C 13.136719 39.355469 13.96875 39.851562 14.71875 39.6875 C 19.457031 38.527344 27.023438 39.355469 30.433594 41.34375 C 30.683594 41.511719 30.929688 41.59375 31.179688 41.59375 C 31.679688 41.59375 32.179688 41.34375 32.429688 40.929688 C 32.925781 40.183594 32.675781 39.273438 32.011719 38.855469 Z M 32.011719 38.855469 "/>
<path style=" stroke:none;fill-rule:nonzero;fill:rgb(0%,0%,0%);fill-opacity:1;" d="M 14.386719 45.988281 C 14.46875 45.988281 14.636719 45.988281 14.71875 45.90625 C 15.300781 45.738281 15.964844 45.65625 16.628906 45.574219 C 17.460938 45.492188 17.960938 44.746094 17.878906 43.914062 C 17.792969 43.085938 17.046875 42.589844 16.214844 42.671875 C 15.382812 42.753906 14.636719 42.921875 13.96875 43.085938 C 13.222656 43.253906 12.722656 44.082031 12.890625 44.828125 C 13.136719 45.492188 13.71875 45.988281 14.386719 45.988281 Z M 14.386719 45.988281 "/>
<path style=" stroke:none;fill-rule:nonzero;fill:rgb(0%,0%,0%);fill-opacity:1;" d="M 32.011719 45.078125 C 29.933594 43.832031 26.523438 42.921875 22.785156 42.589844 C 21.953125 42.507812 21.285156 43.085938 21.203125 43.914062 C 21.121094 44.746094 21.703125 45.40625 22.535156 45.492188 C 25.859375 45.824219 28.851562 46.570312 30.515625 47.5625 C 30.765625 47.730469 31.015625 47.8125 31.265625 47.8125 C 31.761719 47.8125 32.261719 47.5625 32.511719 47.148438 C 32.925781 46.402344 32.675781 45.492188 32.011719 45.078125 Z M 32.011719 45.078125 "/>
<path style=" stroke:none;fill-rule:nonzero;fill:rgb(0%,0%,0%);fill-opacity:1;" d="M 32.011719 51.378906 C 27.9375 48.890625 19.539062 47.980469 14.054688 49.386719 C 13.304688 49.554688 12.804688 50.382812 12.972656 51.128906 C 13.136719 51.875 13.96875 52.375 14.71875 52.207031 C 19.457031 51.046875 27.023438 51.875 30.433594 53.867188 C 30.683594 54.03125 30.929688 54.113281 31.179688 54.113281 C 31.679688 54.113281 32.179688 53.867188 32.429688 53.453125 C 32.925781 52.703125 32.675781 51.792969 32.011719 51.378906 Z M 32.011719 51.378906 "/>
</g>
</svg>
