<?xml version="1.0" encoding="utf-8"?>
<!-- Generator: Adobe Illustrator 25.0.1, SVG Export Plug-In . SVG Version: 6.00 Build 0)  -->
<svg version="1.0" id="Livello_1" xmlns="http://www.w3.org/2000/svg" xmlns:xlink="http://www.w3.org/1999/xlink" x="0px" y="0px"
	 viewBox="0 0 3427.4 2458.7" style="enable-background:new 0 0 3427.4 2458.7;" xml:space="preserve">
<style type="text/css">
	.st0{fill:#FFFFFF;}
	.st1{fill:#FF0000;}
</style>
<g>
	<path class="st0" d="M2793.7,825c0-25.8,0-51.6-0.1-77.4c-0.1-21.7-0.4-43.5-1-65.2c-1.3-47.3-4.1-95.1-12.5-141.9
		c-8.5-47.5-22.5-91.7-44.5-134.9c-21.6-42.4-49.8-81.2-83.4-114.9c-33.7-33.6-72.4-61.8-114.9-83.4c-43.1-22-87.3-35.9-134.8-44.4
		c-46.8-8.4-94.6-11.2-141.9-12.5c-21.7-0.6-43.5-0.8-65.2-1c-25.8-0.1-51.6-0.1-77.4-0.1h-808.6c-25.8,0-51.6,0-77.4,0.1
		c-21.7,0.1-43.5,0.4-65.2,1c-47.3,1.3-95.1,4.1-141.9,12.5c-47.5,8.5-91.7,22.5-134.8,44.4c-42.4,21.6-81.3,49.8-114.9,83.4
		c-33.7,33.7-61.8,72.4-83.4,114.9c-22,43.2-35.9,87.4-44.5,134.9c-8.4,46.8-11.2,94.6-12.4,141.9c-0.6,21.7-0.9,43.5-1,65.2
		c-0.2,25.8-0.2,51.6-0.2,77.4v808.6c0,25.8,0,51.6,0.2,77.4c0.1,21.7,0.4,43.5,1,65.2c1.3,47.3,4.1,95.1,12.5,141.9
		c8.5,47.5,22.5,91.8,44.5,134.9c21.6,42.4,49.8,81.2,83.4,114.8c33.6,33.7,72.4,61.9,114.9,83.5c43.1,22,87.3,35.9,134.8,44.4
		c46.8,8.4,94.6,11.2,141.9,12.5c21.7,0.6,43.5,0.8,65.2,1c25.8,0.1,51.6,0.1,77.4,0.1h808.6c25.8,0,51.6,0,77.4-0.1
		c21.7-0.1,43.5-0.4,65.2-1c47.3-1.3,95.1-4.1,141.9-12.5c47.5-8.5,91.7-22.5,134.8-44.4c42.4-21.6,81.2-49.8,114.9-83.5
		c33.7-33.6,61.8-72.4,83.4-114.8c22-43.2,35.9-87.4,44.5-134.9c8.4-46.8,11.2-94.5,12.5-141.9c0.6-21.7,0.8-43.5,1-65.2
		c0.1-25.8,0.1-51.6,0.1-77.4V825H2793.7z"/>
	<g>
		<path d="M1439.9,1916.4V911.5h-42.2l-256,169.5v42.9l253.1-165.7h3v958.3L1439.9,1916.4L1439.9,1916.4z"/>
		<path d="M1690,911.5V950h552v3l-443.3,963.5h47.4l439.6-964.3v-40.7H1690L1690,911.5z"/>
	</g>
	<path class="st1" d="M1026.2,714.4V497.1h0.8l85.9,195.1h28.5l85.6-195.1h1v217.3h28.5V426.6h-30.2l-98.6,230.6h-0.8L1028,426.7
		h-30.2v287.7H1026.2L1026.2,714.4z"/>
	<path class="st1" d="M1411.4,489.9c-60.1,0-93.5,43.7-93.5,102.9v21.7c0,59.5,33.1,103.4,93.5,103.4c60.3,0,93.2-43.9,93.2-103.4
		v-21.7C1504.7,533.6,1471.3,489.9,1411.4,489.9L1411.4,489.9z M1411.4,517.1c39.2,0,62.2,29.3,62.2,77.2v18.6
		c0,48.1-23,77.4-62.2,77.4c-39.5,0-62.4-29.5-62.4-77.4v-18.6C1349,546.5,1372,517.1,1411.4,517.1L1411.4,517.1z"/>
	<path class="st1" d="M1562.7,714.4h31V579.1c0-31.6,17.3-60.8,57.8-60.8c34.6,0,56.8,20.9,56.8,58.6v137.3h31v-142
		c0-53.6-34-82.5-79.5-82.5c-36.3,0-57,19-65.2,33.8h-0.9v-30.2h-31V714.4L1562.7,714.4z"/>
	<path class="st1" d="M1882,489.7c-54.9,0-88.4,42.8-88.4,102.7V615c0,61,31,102.7,88.4,102.7c31.7,0,54.4-16,66.2-37.8h0.8v34.4
		h29.3V411.2h-31v113.9h-0.8C1935.8,506,1913,489.7,1882,489.7L1882,489.7z M1884.8,517.4c39.2,0,63.3,30.8,63.3,76.4v20.5
		c0,47.5-23.4,75.9-62.9,75.9c-35,0-60.5-25.5-60.5-76.1v-20C1824.6,542.5,1850.6,517.4,1884.8,517.4L1884.8,517.4z"/>
	<path class="st1" d="M2170.2,685.7h0.8v28.7h30.2V560.8c0-45.4-33.3-70.9-79.3-70.9c-51.2,0-77.6,26.8-80.2,65.2h29.3
		c2.5-23.4,19.2-38.4,49.6-38.4c31.4,0,49.6,16.7,49.6,47.7v23.8h-60.1c-50.4,0.2-77,24.7-77,62.9c0,40.5,29.3,66.9,72.2,66.9
		C2139,717.9,2159.6,703.4,2170.2,685.7L2170.2,685.7z M2112.6,691.2c-24.9,0-47.5-13.3-47.5-40.7c0-21.5,13.7-36.9,46-36.9h59.1
		v27.2C2170.2,670.5,2145.5,691.2,2112.6,691.2z"/>
	<path class="st1" d="M2429.6,493.5h-33.1l-63.1,184.8h-1.1l-63.1-184.8h-34.5l82.5,224.4l-4.2,13.5c-6.5,22.8-17.7,36.1-43.7,36.1
		c-4.8,0-12.7-0.6-16.2-1.3v26.4c5.5,0.8,13.7,1.7,21.1,1.7c43,0,57.8-29.5,69.4-61.4l6.3-16.5L2429.6,493.5L2429.6,493.5z"/>
</g>
</svg>
